<?xml version="1.0" encoding="utf-8"?>
<!-- Generator: Adobe Illustrator 16.0.0, SVG Export Plug-In . SVG Version: 6.00 Build 0)  -->
<!DOCTYPE svg PUBLIC "-//W3C//DTD SVG 1.1//EN" "http://www.w3.org/Graphics/SVG/1.1/DTD/svg11.dtd">
<svg version="1.1" id="圖層_1" xmlns="http://www.w3.org/2000/svg" xmlns:xlink="http://www.w3.org/1999/xlink" x="0px" y="0px"
	 width="50px" height="50px" viewBox="0 0 50 50" enable-background="new 0 0 50 50" xml:space="preserve">
<path fill="#EE7B00" d="M48.464,9.761L17.449,8.424c-0.886-0.042-1.634,0.649-1.672,1.534s0.649,1.634,1.533,1.672l28.917,1.247
	L40.54,30.615h-25.3L10.669,5.727c-0.1-0.546-0.476-1.001-0.992-1.204L2.192,1.582C1.366,1.26,0.436,1.664,0.111,2.489
	c-0.323,0.825,0.083,1.756,0.907,2.08l6.655,2.615l4.652,25.326c0.14,0.762,0.803,1.314,1.577,1.314h0.772l-1.762,4.895
	c-0.147,0.409-0.086,0.865,0.164,1.223c0.251,0.355,0.659,0.567,1.094,0.567h1.236c-0.766,0.853-1.236,1.976-1.236,3.208
	c0,2.654,2.16,4.813,4.813,4.813c2.654,0,4.813-2.158,4.813-4.813c0-1.232-0.471-2.355-1.236-3.208h10.493
	c-0.766,0.853-1.234,1.976-1.234,3.208c0,2.654,2.158,4.813,4.812,4.813c2.654,0,4.813-2.158,4.813-4.813
	c0-1.232-0.471-2.355-1.236-3.208h1.505c0.739,0,1.337-0.599,1.337-1.337s-0.599-1.337-1.337-1.337H16.074l1.444-4.011h24.194
	c0.697,0,1.313-0.45,1.526-1.114l6.685-20.855c0.154-0.476,0.075-0.997-0.212-1.407C49.426,10.036,48.964,9.782,48.464,9.761z"/>
</svg>
